<svg width="38" height="38" viewBox="0 0 38 38" fill="none" xmlns="http://www.w3.org/2000/svg">
<path d="M14.2493 23.7503L9.55002 28.4497C9.02699 28.9726 8.36067 29.3287 7.63529 29.4729C6.90991 29.6172 6.15805 29.5431 5.47476 29.2601C4.79146 28.9771 4.20743 28.4978 3.79648 27.8829C3.38553 27.268 3.16613 26.5451 3.16602 25.8055V23.7503L5.3146 13.009C5.60157 11.5733 6.37711 10.2813 7.50928 9.35294C8.64145 8.42457 10.0603 7.91714 11.5244 7.91699H26.4743C27.9384 7.91714 29.3572 8.42457 30.4894 9.35294C31.6216 10.2813 32.3971 11.5733 32.6841 13.009L34.8327 23.7503V25.8039C34.8326 26.5435 34.6132 27.2664 34.2022 27.8813C33.7913 28.4962 33.2072 28.9755 32.5239 29.2585C31.8406 29.5415 31.0888 29.6156 30.3634 29.4713C29.638 29.3271 28.9717 28.971 28.4487 28.4481L23.7493 23.7503H14.2493Z" stroke="white" stroke-width="3.16667" stroke-linecap="round" stroke-linejoin="round"/>
<path d="M14.25 7.91699L15.8333 11.0837H22.1667L23.75 7.91699" stroke="white" stroke-width="3.16667" stroke-linecap="round" stroke-linejoin="round"/>
</svg>
