<svg width="196" height="75" viewBox="0 0 196 75" fill="none" xmlns="http://www.w3.org/2000/svg">
<g filter="url(#filter0_i_301_1182)">
<rect x="18" y="19" width="38" height="38" rx="8" fill="url(#paint0_linear_301_1182)"/>
</g>
<g filter="url(#filter1_d_301_1182)">
<path d="M36.8028 25.1608C36.8405 24.9388 37.1595 24.9388 37.1972 25.1608L38.4379 32.4649C38.4658 32.6292 38.6706 32.6893 38.7829 32.5662L43.7755 27.0923C43.9273 26.926 44.1956 27.0984 44.1073 27.3055L41.2022 34.121C41.1368 34.2742 41.2766 34.4355 41.4376 34.3927L48.5971 32.487C48.8147 32.4291 48.9472 32.7192 48.7609 32.8457L42.6322 37.0086C42.4944 37.1022 42.5248 37.3135 42.6834 37.3645L49.7366 39.632C49.951 39.701 49.9056 40.0166 49.6805 40.0224L42.2741 40.211C42.1076 40.2152 42.0189 40.4094 42.1248 40.538L46.8324 46.2589C46.9755 46.4328 46.7666 46.6738 46.5741 46.5569L40.2415 42.7114C40.0991 42.6249 39.9196 42.7403 39.9391 42.9058L40.8064 50.2636C40.8328 50.4872 40.5268 50.5771 40.428 50.3747L37.1798 43.716C37.1067 43.5663 36.8933 43.5663 36.8202 43.716L33.572 50.3747C33.4732 50.5771 33.1672 50.4873 33.1936 50.2636L34.0609 42.9058C34.0804 42.7403 33.9009 42.6249 33.7585 42.7114L27.4259 46.5569C27.2334 46.6738 27.0245 46.4328 27.1676 46.2589L31.8752 40.538C31.9811 40.4094 31.8924 40.2152 31.7259 40.211L24.3195 40.0224C24.0944 40.0166 24.049 39.701 24.2634 39.632L31.3166 37.3645C31.4752 37.3135 31.5056 37.1022 31.3678 37.0086L25.2391 32.8457C25.0528 32.7192 25.1853 32.4291 25.4029 32.487L32.5624 34.3927C32.7234 34.4355 32.8632 34.2742 32.7978 34.121L29.8927 27.3055C29.8044 27.0984 30.0727 26.926 30.2245 27.0923L35.2171 32.5662C35.3294 32.6893 35.5342 32.6292 35.5621 32.4649L36.8028 25.1608Z" fill="#06020E"/>
</g>
<path d="M82.3906 33.0582C82.2921 32.1842 81.8859 31.5071 81.1719 31.027C80.4579 30.5407 79.5592 30.2976 78.4759 30.2976C77.7003 30.2976 77.0294 30.4207 76.4631 30.6669C75.8968 30.907 75.4567 31.2393 75.1428 31.6641C74.835 32.0826 74.6811 32.5597 74.6811 33.0952C74.6811 33.5445 74.7857 33.9323 74.995 34.2585C75.2105 34.5848 75.4905 34.8587 75.8352 35.0803C76.1861 35.2957 76.5616 35.4773 76.9616 35.625C77.3617 35.7666 77.7464 35.8835 78.1158 35.9759L79.9624 36.456C80.5656 36.6037 81.1842 36.8037 81.8182 37.0561C82.4522 37.3085 83.04 37.6409 83.5817 38.0533C84.1233 38.4657 84.5604 38.9766 84.8928 39.5859C85.2313 40.1953 85.4006 40.9247 85.4006 41.7741C85.4006 42.8452 85.1236 43.7962 84.5696 44.6271C84.0218 45.4581 83.2247 46.1136 82.1783 46.5938C81.138 47.0739 79.8793 47.3139 78.402 47.3139C76.9863 47.3139 75.7614 47.0893 74.7273 46.6399C73.6932 46.1906 72.8838 45.5535 72.299 44.7287C71.7143 43.8977 71.3911 42.9129 71.3295 41.7741H74.1918C74.2472 42.4574 74.4688 43.0268 74.8565 43.4822C75.2505 43.9316 75.7521 44.267 76.3615 44.4886C76.977 44.7041 77.651 44.8118 78.3835 44.8118C79.1899 44.8118 79.907 44.6856 80.5348 44.4332C81.1688 44.1747 81.6674 43.8177 82.0305 43.3622C82.3937 42.9006 82.5753 42.362 82.5753 41.7464C82.5753 41.1863 82.4152 40.7277 82.0952 40.3707C81.7813 40.0137 81.3535 39.7183 80.8118 39.4844C80.2763 39.2505 79.67 39.0443 78.9929 38.8658L76.7585 38.2564C75.2443 37.844 74.044 37.2377 73.1577 36.4375C72.2775 35.6373 71.8374 34.5786 71.8374 33.2614C71.8374 32.1719 72.1328 31.2209 72.7237 30.4084C73.3146 29.5959 74.1148 28.965 75.1243 28.5156C76.1338 28.0601 77.2725 27.8324 78.5405 27.8324C79.8208 27.8324 80.9503 28.0571 81.929 28.5064C82.9138 28.9557 83.6894 29.5743 84.2557 30.3622C84.822 31.1439 85.1174 32.0426 85.142 33.0582H82.3906ZM93.5305 47.2862C92.1332 47.2862 90.9298 46.9877 89.9204 46.3906C88.9171 45.7874 88.1415 44.9411 87.5937 43.8516C87.052 42.7559 86.7812 41.4725 86.7812 40.0014C86.7812 38.5488 87.052 37.2685 87.5937 36.1605C88.1415 35.0526 88.9048 34.1877 89.8834 33.5661C90.8683 32.9444 92.0193 32.6335 93.3366 32.6335C94.1368 32.6335 94.9123 32.7659 95.6633 33.0305C96.4142 33.2952 97.0882 33.7107 97.6853 34.277C98.2824 34.8433 98.7532 35.5788 99.0979 36.4837C99.4426 37.3823 99.615 38.4749 99.615 39.7614V40.7401H88.3415V38.6719H96.9097C96.9097 37.9455 96.762 37.3023 96.4665 36.7422C96.1711 36.1759 95.7556 35.7296 95.2201 35.4034C94.6907 35.0772 94.0691 34.9141 93.355 34.9141C92.5795 34.9141 91.9024 35.1049 91.3238 35.4865C90.7513 35.862 90.3082 36.3544 89.9942 36.9638C89.6865 37.567 89.5326 38.2225 89.5326 38.9304V40.5462C89.5326 41.4941 89.6988 42.3004 90.0312 42.9652C90.3697 43.63 90.8406 44.1378 91.4438 44.4886C92.047 44.8333 92.7518 45.0057 93.5582 45.0057C94.0814 45.0057 94.5584 44.9318 94.9893 44.7841C95.4201 44.6302 95.7925 44.4025 96.1065 44.1009C96.4204 43.7992 96.6604 43.4268 96.8266 42.9837L99.4396 43.4545C99.2303 44.224 98.8548 44.898 98.3131 45.4766C97.7776 46.049 97.1036 46.4953 96.2911 46.8153C95.4848 47.1293 94.5646 47.2862 93.5305 47.2862ZM104.269 28.0909V47H101.508V28.0909H104.269ZM113.562 32.8182V35.0341H105.548V32.8182H113.562ZM107.745 47V31.1747C107.745 30.2884 107.939 29.5528 108.327 28.968C108.715 28.3771 109.229 27.937 109.869 27.6477C110.509 27.3523 111.204 27.2045 111.955 27.2045C112.509 27.2045 112.983 27.2507 113.377 27.343C113.771 27.4292 114.064 27.5092 114.254 27.5831L113.608 29.8175C113.479 29.7805 113.313 29.7375 113.109 29.6882C112.906 29.6328 112.66 29.6051 112.371 29.6051C111.7 29.6051 111.22 29.7713 110.931 30.1037C110.647 30.4361 110.506 30.9162 110.506 31.544V47H107.745ZM128.259 34.0646C128.08 33.5045 127.84 33.0028 127.539 32.5597C127.243 32.1103 126.889 31.7287 126.477 31.4148C126.064 31.0947 125.593 30.8516 125.064 30.6854C124.541 30.5192 123.965 30.4361 123.338 30.4361C122.273 30.4361 121.312 30.71 120.457 31.2578C119.601 31.8056 118.924 32.6089 118.426 33.6676C117.933 34.7202 117.687 36.0097 117.687 37.5362C117.687 39.0689 117.936 40.3646 118.435 41.4233C118.933 42.482 119.617 43.2853 120.485 43.8331C121.352 44.3809 122.34 44.6548 123.448 44.6548C124.476 44.6548 125.372 44.4455 126.135 44.027C126.905 43.6084 127.499 43.0175 127.917 42.2543C128.342 41.4848 128.554 40.58 128.554 39.5398L129.293 39.6783H123.882V37.3239H131.315V39.4751C131.315 41.0632 130.976 42.442 130.299 43.6115C129.628 44.7749 128.699 45.6735 127.511 46.3075C126.329 46.9415 124.975 47.2585 123.448 47.2585C121.737 47.2585 120.235 46.8646 118.943 46.0767C117.656 45.2888 116.653 44.1716 115.933 42.7251C115.213 41.2725 114.852 39.549 114.852 37.5547C114.852 36.0466 115.062 34.6925 115.48 33.4922C115.899 32.2919 116.487 31.2732 117.244 30.4361C118.007 29.5928 118.903 28.9496 119.931 28.5064C120.965 28.0571 122.094 27.8324 123.319 27.8324C124.341 27.8324 125.292 27.9832 126.172 28.2848C127.058 28.5864 127.846 29.0142 128.536 29.5682C129.231 30.1222 129.807 30.7808 130.262 31.544C130.718 32.3011 131.026 33.1413 131.186 34.0646H128.259ZM137.672 47.3139C136.773 47.3139 135.961 47.1477 135.235 46.8153C134.508 46.4768 133.933 45.9875 133.508 45.3473C133.089 44.7071 132.88 43.9223 132.88 42.9929C132.88 42.1927 133.034 41.5341 133.342 41.017C133.65 40.5 134.065 40.0907 134.588 39.7891C135.111 39.4875 135.696 39.2597 136.342 39.1058C136.989 38.9519 137.647 38.835 138.318 38.755C139.168 38.6565 139.857 38.5765 140.387 38.5149C140.916 38.4472 141.301 38.3395 141.541 38.1918C141.781 38.044 141.901 37.804 141.901 37.4716V37.407C141.901 36.6006 141.673 35.9759 141.217 35.5327C140.768 35.0895 140.097 34.8679 139.205 34.8679C138.275 34.8679 137.543 35.0741 137.007 35.4865C136.478 35.8928 136.112 36.3452 135.909 36.8438L133.314 36.2528C133.622 35.3911 134.071 34.6955 134.662 34.1662C135.259 33.6307 135.945 33.2429 136.721 33.0028C137.497 32.7566 138.312 32.6335 139.168 32.6335C139.734 32.6335 140.334 32.7012 140.968 32.8366C141.608 32.9659 142.205 33.206 142.759 33.5568C143.32 33.9077 143.778 34.4093 144.135 35.0618C144.492 35.7081 144.671 36.5483 144.671 37.5824V47H141.975V45.0611H141.864C141.685 45.4181 141.418 45.7689 141.061 46.1136C140.704 46.4583 140.245 46.7446 139.685 46.9723C139.125 47.2 138.454 47.3139 137.672 47.3139ZM138.272 45.098C139.035 45.098 139.688 44.9472 140.23 44.6456C140.777 44.344 141.193 43.95 141.476 43.4638C141.765 42.9714 141.91 42.4451 141.91 41.8849V40.0568C141.811 40.1553 141.621 40.2476 141.338 40.3338C141.061 40.4138 140.744 40.4846 140.387 40.5462C140.03 40.6016 139.682 40.6539 139.343 40.7031C139.005 40.7462 138.721 40.7831 138.494 40.8139C137.958 40.8816 137.469 40.9955 137.026 41.1555C136.589 41.3156 136.238 41.5464 135.973 41.848C135.715 42.1435 135.585 42.5374 135.585 43.0298C135.585 43.7131 135.838 44.2301 136.342 44.581C136.847 44.9257 137.49 45.098 138.272 45.098ZM147.178 47V32.8182H149.827V35.1264H150.003C150.298 34.3447 150.782 33.7353 151.452 33.2983C152.123 32.8551 152.927 32.6335 153.862 32.6335C154.81 32.6335 155.604 32.8551 156.244 33.2983C156.891 33.7415 157.368 34.3509 157.675 35.1264H157.823C158.162 34.3693 158.7 33.7661 159.439 33.3168C160.178 32.8613 161.058 32.6335 162.08 32.6335C163.366 32.6335 164.416 33.0367 165.228 33.843C166.047 34.6494 166.456 35.8651 166.456 37.4901V47H163.695V37.7486C163.695 36.7884 163.434 36.0928 162.911 35.6619C162.387 35.2311 161.763 35.0156 161.036 35.0156C160.138 35.0156 159.439 35.2926 158.94 35.8466C158.442 36.3944 158.193 37.0992 158.193 37.9609V47H155.441V37.5732C155.441 36.8037 155.201 36.1851 154.721 35.7173C154.241 35.2495 153.616 35.0156 152.847 35.0156C152.323 35.0156 151.84 35.1541 151.397 35.4311C150.96 35.7019 150.606 36.0805 150.335 36.5668C150.071 37.053 149.938 37.6162 149.938 38.2564V47H147.178ZM175.098 47.2862C173.701 47.2862 172.498 46.9877 171.488 46.3906C170.485 45.7874 169.709 44.9411 169.162 43.8516C168.62 42.7559 168.349 41.4725 168.349 40.0014C168.349 38.5488 168.62 37.2685 169.162 36.1605C169.709 35.0526 170.473 34.1877 171.451 33.5661C172.436 32.9444 173.587 32.6335 174.904 32.6335C175.705 32.6335 176.48 32.7659 177.231 33.0305C177.982 33.2952 178.656 33.7107 179.253 34.277C179.85 34.8433 180.321 35.5788 180.666 36.4837C181.011 37.3823 181.183 38.4749 181.183 39.7614V40.7401H169.909V38.6719H178.478C178.478 37.9455 178.33 37.3023 178.034 36.7422C177.739 36.1759 177.323 35.7296 176.788 35.4034C176.259 35.0772 175.637 34.9141 174.923 34.9141C174.147 34.9141 173.47 35.1049 172.892 35.4865C172.319 35.862 171.876 36.3544 171.562 36.9638C171.254 37.567 171.1 38.2225 171.1 38.9304V40.5462C171.1 41.4941 171.267 42.3004 171.599 42.9652C171.938 43.63 172.408 44.1378 173.012 44.4886C173.615 44.8333 174.32 45.0057 175.126 45.0057C175.649 45.0057 176.126 44.9318 176.557 44.7841C176.988 44.6302 177.36 44.4025 177.674 44.1009C177.988 43.7992 178.228 43.4268 178.395 42.9837L181.007 43.4545C180.798 44.224 180.423 44.898 179.881 45.4766C179.346 46.049 178.672 46.4953 177.859 46.8153C177.053 47.1293 176.132 47.2862 175.098 47.2862ZM193.703 36.2805L191.201 36.7237C191.096 36.4036 190.93 36.099 190.702 35.8097C190.481 35.5204 190.179 35.2834 189.797 35.0987C189.416 34.9141 188.939 34.8217 188.366 34.8217C187.585 34.8217 186.932 34.9972 186.409 35.348C185.886 35.6927 185.624 36.139 185.624 36.6868C185.624 37.1607 185.8 37.5424 186.15 37.8317C186.501 38.121 187.068 38.358 187.849 38.5426L190.102 39.0597C191.407 39.3613 192.38 39.826 193.02 40.4538C193.66 41.0817 193.98 41.8973 193.98 42.9006C193.98 43.75 193.734 44.5071 193.241 45.1719C192.755 45.8305 192.075 46.3475 191.201 46.723C190.333 47.0985 189.327 47.2862 188.182 47.2862C186.594 47.2862 185.298 46.9477 184.295 46.2706C183.291 45.5874 182.676 44.6179 182.448 43.3622L185.116 42.956C185.283 43.6515 185.624 44.1778 186.141 44.5348C186.658 44.8857 187.332 45.0611 188.163 45.0611C189.068 45.0611 189.791 44.8733 190.333 44.4979C190.875 44.1162 191.146 43.6515 191.146 43.1037C191.146 42.6605 190.979 42.2881 190.647 41.9865C190.321 41.6849 189.819 41.4571 189.142 41.3033L186.741 40.777C185.418 40.4754 184.439 39.9953 183.805 39.3366C183.177 38.678 182.864 37.844 182.864 36.8345C182.864 35.9974 183.097 35.2649 183.565 34.6371C184.033 34.0092 184.679 33.5199 185.504 33.169C186.329 32.812 187.274 32.6335 188.339 32.6335C189.871 32.6335 191.078 32.9659 191.958 33.6307C192.838 34.2893 193.42 35.1726 193.703 36.2805Z" fill="black"/>
<defs>
<filter id="filter0_i_301_1182" x="18" y="19" width="38" height="43" filterUnits="userSpaceOnUse" color-interpolation-filters="sRGB">
<feFlood flood-opacity="0" result="BackgroundImageFix"/>
<feBlend mode="normal" in="SourceGraphic" in2="BackgroundImageFix" result="shape"/>
<feColorMatrix in="SourceAlpha" type="matrix" values="0 0 0 0 0 0 0 0 0 0 0 0 0 0 0 0 0 0 127 0" result="hardAlpha"/>
<feOffset dy="5"/>
<feGaussianBlur stdDeviation="10.5"/>
<feComposite in2="hardAlpha" operator="arithmetic" k2="-1" k3="1"/>
<feColorMatrix type="matrix" values="0 0 0 0 1 0 0 0 0 1 0 0 0 0 1 0 0 0 0.46 0"/>
<feBlend mode="normal" in2="shape" result="effect1_innerShadow_301_1182"/>
</filter>
<filter id="filter1_d_301_1182" x="0.125" y="0.994141" width="73.75" height="73.4937" filterUnits="userSpaceOnUse" color-interpolation-filters="sRGB">
<feFlood flood-opacity="0" result="BackgroundImageFix"/>
<feColorMatrix in="SourceAlpha" type="matrix" values="0 0 0 0 0 0 0 0 0 0 0 0 0 0 0 0 0 0 127 0" result="hardAlpha"/>
<feOffset/>
<feGaussianBlur stdDeviation="12"/>
<feComposite in2="hardAlpha" operator="out"/>
<feColorMatrix type="matrix" values="0 0 0 0 0 0 0 0 0 0 0 0 0 0 0 0 0 0 0.25 0"/>
<feBlend mode="normal" in2="BackgroundImageFix" result="effect1_dropShadow_301_1182"/>
<feBlend mode="normal" in="SourceGraphic" in2="effect1_dropShadow_301_1182" result="shape"/>
</filter>
<linearGradient id="paint0_linear_301_1182" x1="56" y1="53" x2="59.8657" y2="35.4083" gradientUnits="userSpaceOnUse">
<stop stop-color="#3084EF"/>
<stop offset="1" stop-color="#3AD0FF"/>
</linearGradient>
</defs>
</svg>
